<svg width="38" height="38" viewBox="0 0 38 38" fill="none" xmlns="http://www.w3.org/2000/svg">
<path d="M19.0003 25.3333V33.25M25.3337 22.1667V33.25M31.667 15.8333V33.25M34.8337 4.75L21.1442 18.4395C21.0706 18.5132 20.9833 18.5717 20.8871 18.6116C20.7909 18.6515 20.6878 18.6721 20.5837 18.6721C20.4795 18.6721 20.3764 18.6515 20.2802 18.6116C20.1841 18.5717 20.0967 18.5132 20.0232 18.4395L14.8108 13.2272C14.6624 13.0788 14.461 12.9954 14.2511 12.9954C14.0412 12.9954 13.8399 13.0788 13.6914 13.2272L3.16699 23.75M6.33366 28.5V33.25M12.667 22.1667V33.25" stroke="#BF7139" stroke-width="3.16667" stroke-linecap="round" stroke-linejoin="round"/>
</svg>
