<svg width="38" height="38" viewBox="0 0 38 38" fill="none" xmlns="http://www.w3.org/2000/svg">
<path d="M14.2497 19.0001L17.4163 22.1667L23.7497 15.8334M31.6663 20.5834C31.6663 28.5001 26.1247 32.4584 19.538 34.7542C19.1931 34.8711 18.8184 34.8655 18.4772 34.7384C11.8747 32.4584 6.33301 28.5001 6.33301 20.5834V9.50006C6.33301 9.08013 6.49982 8.67741 6.79676 8.38048C7.09369 8.08354 7.49642 7.91673 7.91634 7.91673C11.083 7.91673 15.0413 6.01673 17.7963 3.61006C18.1318 3.32348 18.5585 3.16602 18.9997 3.16602C19.4409 3.16602 19.8676 3.32348 20.203 3.61006C22.9738 6.03256 26.9163 7.91673 30.083 7.91673C30.5029 7.91673 30.9057 8.08354 31.2026 8.38048C31.4995 8.67741 31.6663 9.08013 31.6663 9.50006V20.5834Z" stroke="#37488C" stroke-width="3.16667" stroke-linecap="round" stroke-linejoin="round"/>
</svg>
