<svg width="38" height="38" viewBox="0 0 38 38" fill="none" xmlns="http://www.w3.org/2000/svg">
<path d="M31.6669 3.16688V9.50021M34.8335 6.33354H28.5002M17.4438 4.45571C17.5116 4.0925 17.7044 3.76445 17.9886 3.52838C18.2729 3.29231 18.6307 3.16309 19.0002 3.16309C19.3697 3.16309 19.7276 3.29231 20.0118 3.52838C20.2961 3.76445 20.4888 4.0925 20.5566 4.45571L22.2207 13.2559C22.3389 13.8815 22.6429 14.457 23.0932 14.9072C23.5434 15.3575 24.1189 15.6615 24.7445 15.7797L33.5447 17.4438C33.9079 17.5116 34.236 17.7044 34.472 17.9886C34.7081 18.2729 34.8373 18.6307 34.8373 19.0002C34.8373 19.3697 34.7081 19.7276 34.472 20.0118C34.236 20.2961 33.9079 20.4888 33.5447 20.5566L24.7445 22.2207C24.1189 22.3389 23.5434 22.6429 23.0932 23.0932C22.6429 23.5434 22.3389 24.1189 22.2207 24.7445L20.5566 33.5447C20.4888 33.9079 20.2961 34.236 20.0118 34.472C19.7276 34.7081 19.3697 34.8373 19.0002 34.8373C18.6307 34.8373 18.2729 34.7081 17.9886 34.472C17.7044 34.236 17.5116 33.9079 17.4438 33.5447L15.7797 24.7445C15.6615 24.1189 15.3575 23.5434 14.9072 23.0932C14.457 22.6429 13.8815 22.3389 13.2559 22.2207L4.45571 20.5566C4.0925 20.4888 3.76445 20.2961 3.52838 20.0118C3.29231 19.7276 3.16309 19.3697 3.16309 19.0002C3.16309 18.6307 3.29231 18.2729 3.52838 17.9886C3.76445 17.7044 4.0925 17.5116 4.45571 17.4438L13.2559 15.7797C13.8815 15.6615 14.457 15.3575 14.9072 14.9072C15.3575 14.457 15.6615 13.8815 15.7797 13.2559L17.4438 4.45571ZM9.50021 31.6669C9.50021 33.4158 8.08245 34.8335 6.33354 34.8335C4.58464 34.8335 3.16688 33.4158 3.16688 31.6669C3.16688 29.918 4.58464 28.5002 6.33354 28.5002C8.08245 28.5002 9.50021 29.918 9.50021 31.6669Z" stroke="#760074" stroke-width="3.16667" stroke-linecap="round" stroke-linejoin="round"/>
</svg>
